<?xml version="1.0" encoding="UTF-8"?>
<svg id="Capa_2" data-name="Capa 2" xmlns="http://www.w3.org/2000/svg" viewBox="0 0 2223.15 836.65">
  <defs>
    <style>
      .cls-1 {
        font-family: TTCommons-Regular, 'TT Commons';
      }

      .cls-2 {
        font-size: 300px;
      }

      .cls-3, .cls-4 {
        font-family: TTCommons-Light, 'TT Commons';
        font-weight: 300;
      }

      .cls-4 {
        letter-spacing: -.02em;
      }
    </style>
  </defs>
  <g id="Capa_1-2" data-name="Capa 1">
    <g>
      <path d="m316.65,5.81C141.77,5.81,0,147.58,0,322.46v514.19h9.81c76.41,0,138.34-61.94,138.34-138.34v-107.71c48.8,30.73,106.57,48.51,168.49,48.51,174.88,0,316.65-141.77,316.65-316.65S491.53,5.81,316.65,5.81Zm0,482.24c-91.45,0-165.59-74.14-165.59-165.59s74.14-165.59,165.59-165.59,165.59,74.14,165.59,165.59-74.14,165.59-165.59,165.59Z"/>
      <path d="m677.85,247.31c117.65-171.4,268.72-38.54,268.72-38.54l101.08-108.76C988.92,38.4,906.05,0,814.2,0c-178.09,0-322.46,144.37-322.46,322.46,0,27.58,3.47,54.34,9.98,79.89h458.14c-117.65,171.4-268.72,38.54-268.72,38.54l-103.34,111.19c.43.43.87.86,1.3,1.29,58.11,56.66,137.52,91.56,225.09,91.56,178.09,0,322.46-144.37,322.46-322.46,0-25.87-3.05-51.04-8.81-75.15h-450Z"/>
    </g>
    <text class="cls-2" transform="translate(1217.33 489.94)"><tspan class="cls-4" x="0" y="0">P</tspan><tspan class="cls-3" x="150" y="0">ablo</tspan><tspan class="cls-1" x="643.49" y="0">Sol</tspan></text>
  </g>
</svg>